<?xml version="1.0" standalone="no"?>
<!DOCTYPE svg PUBLIC "-//W3C//DTD SVG 20010904//EN" "http://www.w3.org/TR/2001/REC-SVG-20010904/DTD/svg10.dtd">
<!-- Created using Krita: https://krita.org -->
<svg xmlns="http://www.w3.org/2000/svg" 
    xmlns:xlink="http://www.w3.org/1999/xlink"
    xmlns:krita="http://krita.org/namespaces/svg/krita"
    xmlns:sodipodi="http://sodipodi.sourceforge.net/DTD/sodipodi-0.dtd"
    width="737.28pt"
    height="737.28pt"
    viewBox="0 0 737.28 737.28">
<defs/>
<g id="group0" transform="matrix(3.20000013013681 0 0 3.20000013013681 5.9594052288503e-06 5.95940578662635e-06)" fill="none">
  <rect id="shape0" transform="matrix(0.999999952904974 0 0 0.999999952904974 0 0)" fill="#4c4637" fill-rule="evenodd" stroke="#000000" stroke-opacity="0" stroke-width="0" stroke-linecap="square" stroke-linejoin="bevel" width="28.8" height="28.8"/>
  <rect id="shape01" transform="matrix(0.999999952904974 0 0 0.999999952904974 0 28.7999986436633)" fill="#4c4637" fill-rule="evenodd" stroke="#000000" stroke-opacity="0" stroke-width="0" stroke-linecap="square" stroke-linejoin="bevel" width="28.8" height="28.8"/>
  <rect id="shape01" transform="matrix(0.999999952904974 0 0 0.999999952904974 0 57.5999972873266)" fill="#4c4637" fill-rule="evenodd" stroke="#000000" stroke-opacity="0" stroke-width="0" stroke-linecap="square" stroke-linejoin="bevel" width="28.8" height="28.8"/>
  <rect id="shape02" transform="matrix(0.999999952904974 0 0 0.999999952904974 28.7999986436636 57.5999972873266)" fill="#4c4637" fill-rule="evenodd" stroke="#000000" stroke-opacity="0" stroke-width="0" stroke-linecap="square" stroke-linejoin="bevel" width="28.8" height="28.8"/>
  <rect id="shape03" transform="matrix(0.99999993524434 0 0 0.99999993524434 28.7999988979764 86.3999961853029)" fill="#4c4637" fill-rule="evenodd" stroke="#000000" stroke-opacity="0" stroke-width="0" stroke-linecap="square" stroke-linejoin="bevel" width="28.8" height="28.8"/>
  <rect id="shape04" transform="matrix(0.99999993524434 0 0 0.99999993524434 57.5999975416396 86.3999961853029)" fill="#4c4637" fill-rule="evenodd" stroke="#000000" stroke-opacity="0" stroke-width="0" stroke-linecap="square" stroke-linejoin="bevel" width="28.8" height="28.8"/>
  <rect id="shape05" transform="matrix(0.99999993524434 0 0 0.99999993524434 57.5999975416396 115.199994828966)" fill="#4c4637" fill-rule="evenodd" stroke="#000000" stroke-opacity="0" stroke-width="0" stroke-linecap="square" stroke-linejoin="bevel" width="28.8" height="28.8"/>
  <rect id="shape06" transform="matrix(0.99999993524434 0 0 0.99999993524434 86.3999961853029 115.199994828966)" fill="#4c4637" fill-rule="evenodd" stroke="#000000" stroke-opacity="0" stroke-width="0" stroke-linecap="square" stroke-linejoin="bevel" width="28.8" height="28.8"/>
  <rect id="shape07" transform="matrix(0.99999993524434 0 0 0.99999993524434 86.3999961853029 143.999993472629)" fill="#4c4637" fill-rule="evenodd" stroke="#000000" stroke-opacity="0" stroke-width="0" stroke-linecap="square" stroke-linejoin="bevel" width="28.8" height="28.8"/>
  <rect id="shape08" transform="matrix(0.99999993524434 0 0 0.99999993524434 115.199994828966 143.999993472629)" fill="#4c4637" fill-rule="evenodd" stroke="#000000" stroke-opacity="0" stroke-width="0" stroke-linecap="square" stroke-linejoin="bevel" width="28.8" height="28.8"/>
  <rect id="shape09" transform="matrix(0.99999993524434 0 0 0.99999993524434 115.199994828966 115.199994828966)" fill="#4c4637" fill-rule="evenodd" stroke="#000000" stroke-opacity="0" stroke-width="0" stroke-linecap="square" stroke-linejoin="bevel" width="28.8" height="28.8"/>
  <rect id="shape010" transform="matrix(0.99999993524434 0 0 0.99999993524434 143.99999347263 115.199994828966)" fill="#4c4637" fill-rule="evenodd" stroke="#000000" stroke-opacity="0" stroke-width="0" stroke-linecap="square" stroke-linejoin="bevel" width="28.8" height="28.8"/>
  <rect id="shape011" transform="matrix(0.99999993524434 0 0 0.99999993524434 143.99999347263 86.3999961853029)" fill="#4c4637" fill-rule="evenodd" stroke="#000000" stroke-opacity="0" stroke-width="0" stroke-linecap="square" stroke-linejoin="bevel" width="28.8" height="28.8"/>
  <rect id="shape012" transform="matrix(0.99999993524434 0 0 0.99999993524434 172.799992116293 86.3999961853029)" fill="#4c4637" fill-rule="evenodd" stroke="#000000" stroke-opacity="0" stroke-width="0" stroke-linecap="square" stroke-linejoin="bevel" width="28.8" height="28.8"/>
  <rect id="shape013" transform="matrix(0.99999993524434 0 0 0.99999993524434 172.799992116293 57.5999975416397)" fill="#4c4637" fill-rule="evenodd" stroke="#000000" stroke-opacity="0" stroke-width="0" stroke-linecap="square" stroke-linejoin="bevel" width="28.8" height="28.8"/>
  <rect id="shape014" transform="matrix(0.99999993524434 0 0 0.99999993524434 201.599990632799 57.5999974144826)" fill="#4c4637" fill-rule="evenodd" stroke="#000000" stroke-opacity="0" stroke-width="0" stroke-linecap="square" stroke-linejoin="bevel" width="28.8" height="28.8"/>
  <rect id="shape015" transform="matrix(0.99999993524434 0 0 0.99999993524434 201.599990632799 28.7999987708193)" fill="#4c4637" fill-rule="evenodd" stroke="#000000" stroke-opacity="0" stroke-width="0" stroke-linecap="square" stroke-linejoin="bevel" width="28.8" height="28.8"/>
  <rect id="shape016" transform="matrix(0.99999993524434 0 0 0.99999993524434 201.599990632799 1.2715611319436e-07)" fill="#4c4637" fill-rule="evenodd" stroke="#000000" stroke-opacity="0" stroke-width="0" stroke-linecap="square" stroke-linejoin="bevel" width="28.8" height="28.8"/>
  <rect id="shape017" transform="matrix(0.99999993524434 0 0 0.99999993524434 201.599990632799 115.199994701809)" fill="#4c4637" fill-rule="evenodd" stroke="#000000" stroke-opacity="0" stroke-width="0" stroke-linecap="square" stroke-linejoin="bevel" width="28.8" height="28.8"/>
  <rect id="shape018" transform="matrix(0.99999993524434 0 0 0.99999993524434 201.599990632799 143.999993345472)" fill="#4c4637" fill-rule="evenodd" stroke="#000000" stroke-opacity="0" stroke-width="0" stroke-linecap="square" stroke-linejoin="bevel" width="28.8" height="28.8"/>
  <rect id="shape019" transform="matrix(0.99999993524434 0 0 0.99999993524434 201.599990632799 172.799991989136)" fill="#4c4637" fill-rule="evenodd" stroke="#000000" stroke-opacity="0" stroke-width="0" stroke-linecap="square" stroke-linejoin="bevel" width="28.8" height="28.8"/>
  <rect id="shape020" transform="matrix(0.99999993524434 0 0 0.99999993524434 172.799991989136 172.799991989136)" fill="#4c4637" fill-rule="evenodd" stroke="#000000" stroke-opacity="0" stroke-width="0" stroke-linecap="square" stroke-linejoin="bevel" width="28.8" height="28.8"/>
  <rect id="shape021" transform="matrix(0.99999993524434 0 0 0.99999993524434 172.799991989136 201.599990632799)" fill="#4c4637" fill-rule="evenodd" stroke="#000000" stroke-opacity="0" stroke-width="0" stroke-linecap="square" stroke-linejoin="bevel" width="28.8" height="28.8"/>
  <rect id="shape022" transform="matrix(0.999999922778011 0 0 0.999999922778011 3.06671552152693e-07 115.199995240355)" fill="#4c4637" fill-rule="evenodd" stroke="#000000" stroke-opacity="0" stroke-width="0" stroke-linecap="square" stroke-linejoin="bevel" width="28.8" height="28.8"/>
  <rect id="shape011" transform="matrix(0.999999922778011 0 0 0.999999922778011 3.06671552152693e-07 143.999993524987)" fill="#4c4637" fill-rule="evenodd" stroke="#000000" stroke-opacity="0" stroke-width="0" stroke-linecap="square" stroke-linejoin="bevel" width="28.8" height="28.8"/>
  <rect id="shape021" transform="matrix(0.999999922778011 0 0 0.999999922778011 3.06671552152693e-07 172.799991809621)" fill="#4c4637" fill-rule="evenodd" stroke="#000000" stroke-opacity="0" stroke-width="0" stroke-linecap="square" stroke-linejoin="bevel" width="28.8" height="28.8"/>
  <rect id="shape023" transform="matrix(0.999999888149317 0 0 0.999999888149317 28.7999994489875 172.799993345473)" fill="#4c4637" fill-rule="evenodd" stroke="#000000" stroke-opacity="0" stroke-width="0" stroke-linecap="square" stroke-linejoin="bevel" width="28.8" height="28.8"/>
  <rect id="shape0111" transform="matrix(0.999999888149317 0 0 0.999999888149317 28.7999994489875 201.599990632799)" fill="#4c4637" fill-rule="evenodd" stroke="#000000" stroke-opacity="0" stroke-width="0" stroke-linecap="square" stroke-linejoin="bevel" width="28.8" height="28.8"/>
 </g><g id="group1" transform="matrix(3.20000013013681 0 0 3.20000013013681 5.55250361600201e-06 9.93153324557738e-06)" fill="none">
  <rect id="shape2" transform="matrix(0.999999952904974 0 0 -0.999999952904974 0 115.199993206206)" fill="#f2cf1d" fill-rule="evenodd" stroke="#000000" stroke-opacity="0" stroke-width="0" stroke-linecap="square" stroke-linejoin="bevel" width="28.8" height="28.8"/>
  <rect id="shape024" transform="matrix(0.999999922629602 0 0 -0.999999922629602 201.599990941608 115.199992770241)" fill="#f2cf1d" fill-rule="evenodd" stroke="#000000" stroke-opacity="0" stroke-width="0" stroke-linecap="square" stroke-linejoin="bevel" width="28.8" height="28.8"/>
  <rect id="shape025" transform="matrix(0.999999922629602 0 0 -0.999999922629602 4.35965489486989e-07 230.399987344893)" fill="#f2cf1d" fill-rule="evenodd" stroke="#000000" stroke-opacity="0" stroke-width="0" stroke-linecap="square" stroke-linejoin="bevel" width="28.8" height="28.8"/>
  <rect id="shape026" transform="matrix(0.99999987553458 0 0 -0.99999987553458 201.599991619777 230.399986666725)" fill="#f2cf1d" fill-rule="evenodd" stroke="#000000" stroke-opacity="0" stroke-width="0" stroke-linecap="square" stroke-linejoin="bevel" width="28.8" height="28.8"/>
  <rect id="shape027" transform="matrix(0.99999987553458 0 0 -0.99999987553458 28.7999997577972 172.799989379399)" fill="#f2cf1d" fill-rule="evenodd" stroke="#000000" stroke-opacity="0" stroke-width="0" stroke-linecap="square" stroke-linejoin="bevel" width="28.8" height="28.8"/>
  <rect id="shape028" transform="matrix(0.99999987553458 0 0 -0.99999987553458 57.5999984014605 172.799989379399)" fill="#f2cf1d" fill-rule="evenodd" stroke="#000000" stroke-opacity="0" stroke-width="0" stroke-linecap="square" stroke-linejoin="bevel" width="28.8" height="28.8"/>
  <rect id="shape029" transform="matrix(0.999999857873947 0 0 -0.999999857873947 143.999994841076 172.799989125086)" fill="#f2cf1d" fill-rule="evenodd" stroke="#000000" stroke-opacity="0" stroke-width="0" stroke-linecap="square" stroke-linejoin="bevel" width="28.8" height="28.8"/>
  <rect id="shape0121" transform="matrix(0.999999857873947 0 0 -0.999999857873947 172.799992976114 172.799989125086)" fill="#f2cf1d" fill-rule="evenodd" stroke="#000000" stroke-opacity="0" stroke-width="0" stroke-linecap="square" stroke-linejoin="bevel" width="28.8" height="28.8"/>
  <rect id="shape030" transform="matrix(0.999999857873947 0 0 -0.999999857873947 57.5999989100865 201.599987768749)" fill="#f2cf1d" fill-rule="evenodd" stroke="#000000" stroke-opacity="0" stroke-width="0" stroke-linecap="square" stroke-linejoin="bevel" width="28.8" height="28.8"/>
  <rect id="shape0131" transform="matrix(0.999999857873947 0 0 -0.999999857873947 86.3999970451238 201.599987768749)" fill="#f2cf1d" fill-rule="evenodd" stroke="#000000" stroke-opacity="0" stroke-width="0" stroke-linecap="square" stroke-linejoin="bevel" width="28.8" height="28.8"/>
  <rect id="shape031" transform="matrix(0.999999857873947 0 0 -0.999999857873947 57.5999989100865 230.399986412413)" fill="#f2cf1d" fill-rule="evenodd" stroke="#000000" stroke-opacity="0" stroke-width="0" stroke-linecap="square" stroke-linejoin="bevel" width="28.8" height="28.8"/>
  <rect id="shape0141" transform="matrix(0.999999857873947 0 0 -0.999999857873947 86.3999970451238 230.399986412413)" fill="#f2cf1d" fill-rule="evenodd" stroke="#000000" stroke-opacity="0" stroke-width="0" stroke-linecap="square" stroke-linejoin="bevel" width="28.8" height="28.8"/>
  <rect id="shape032" transform="matrix(0.999999857873947 0 0 -0.999999857873947 115.199996197413 201.599987768749)" fill="#f2cf1d" fill-rule="evenodd" stroke="#000000" stroke-opacity="0" stroke-width="0" stroke-linecap="square" stroke-linejoin="bevel" width="28.8" height="28.8"/>
  <rect id="shape0151" transform="matrix(0.999999857873947 0 0 -0.999999857873947 143.999994332451 201.599987768749)" fill="#f2cf1d" fill-rule="evenodd" stroke="#000000" stroke-opacity="0" stroke-width="0" stroke-linecap="square" stroke-linejoin="bevel" width="28.8" height="28.8"/>
  <rect id="shape033" transform="matrix(0.999999857873947 0 0 -0.999999857873947 115.199996197413 230.399986412413)" fill="#f2cf1d" fill-rule="evenodd" stroke="#000000" stroke-opacity="0" stroke-width="0" stroke-linecap="square" stroke-linejoin="bevel" width="28.8" height="28.8"/>
  <rect id="shape0161" transform="matrix(0.999999857873947 0 0 -0.999999857873947 143.999994332451 230.399986412413)" fill="#f2cf1d" fill-rule="evenodd" stroke="#000000" stroke-opacity="0" stroke-width="0" stroke-linecap="square" stroke-linejoin="bevel" width="28.8" height="28.8"/>
  <rect id="shape034" transform="matrix(0.999999857873947 0 0 -0.999999857873947 86.3999975537497 28.7999959067697)" fill="#f2cf1d" fill-rule="evenodd" stroke="#000000" stroke-opacity="0" stroke-width="0" stroke-linecap="square" stroke-linejoin="bevel" width="28.8" height="28.8"/>
  <rect id="shape0171" transform="matrix(0.999999857873947 0 0 -0.999999857873947 115.199995688787 28.7999959067697)" fill="#f2cf1d" fill-rule="evenodd" stroke="#000000" stroke-opacity="0" stroke-width="0" stroke-linecap="square" stroke-linejoin="bevel" width="28.8" height="28.8"/>
  <rect id="shape035" transform="matrix(0.999999857873947 0 0 -0.999999857873947 28.8000002664232 57.5999945504329)" fill="#f2cf1d" fill-rule="evenodd" stroke="#000000" stroke-opacity="0" stroke-width="0" stroke-linecap="square" stroke-linejoin="bevel" width="28.8" height="28.8"/>
  <rect id="shape0181" transform="matrix(0.999999857873947 0 0 -0.999999857873947 57.5999984014605 57.5999945504329)" fill="#f2cf1d" fill-rule="evenodd" stroke="#000000" stroke-opacity="0" stroke-width="0" stroke-linecap="square" stroke-linejoin="bevel" width="28.8" height="28.8"/>
  <rect id="shape036" transform="matrix(0.999999857873947 0 0 -0.999999857873947 143.999994841076 57.5999945504329)" fill="#f2cf1d" fill-rule="evenodd" stroke="#000000" stroke-opacity="0" stroke-width="0" stroke-linecap="square" stroke-linejoin="bevel" width="28.8" height="28.8"/>
  <rect id="shape0191" transform="matrix(0.999999857873947 0 0 -0.999999857873947 172.799992976114 57.5999945504329)" fill="#f2cf1d" fill-rule="evenodd" stroke="#000000" stroke-opacity="0" stroke-width="0" stroke-linecap="square" stroke-linejoin="bevel" width="28.8" height="28.8"/>
  <rect id="shape037" transform="matrix(0.99999989235423 0 0 -0.99999989235423 143.999994090247 86.3999936906121)" fill="#f2cf1d" fill-rule="evenodd" stroke="#000000" stroke-opacity="0" stroke-width="0" stroke-linecap="square" stroke-linejoin="bevel" width="28.8" height="28.8"/>
  <rect id="shape038" transform="matrix(0.99999989235423 0 0 -0.99999989235423 57.5999981592574 86.3999936906121)" fill="#f2cf1d" fill-rule="evenodd" stroke="#000000" stroke-opacity="0" stroke-width="0" stroke-linecap="square" stroke-linejoin="bevel" width="28.8" height="28.8"/>
  <rect id="shape0110" transform="matrix(0.999999840213314 0 0 -0.999999840213314 172.799993484739 28.7999956524567)" fill="#f2cf1d" fill-rule="evenodd" stroke="#000000" stroke-opacity="0" stroke-width="0" stroke-linecap="square" stroke-linejoin="bevel" width="28.8" height="28.8"/>
  <rect id="shape0111" transform="matrix(0.999999840213314 0 0 -0.999999840213314 28.8000002664234 28.7999956524567)" fill="#f2cf1d" fill-rule="evenodd" stroke="#000000" stroke-opacity="0" stroke-width="0" stroke-linecap="square" stroke-linejoin="bevel" width="28.8" height="28.8"/>
 </g><g id="group2" transform="matrix(3.20000013013681 0 0 3.20000013013681 92.1600064577211 5.55250360179116e-06)" fill="none">
  <rect id="shape1" transform="matrix(0.999999952904974 0 0 0.999999952904974 143.999993218316 115.199994574653)" fill="#00d7b9" fill-rule="evenodd" stroke="#000000" stroke-opacity="0" stroke-width="0" stroke-linecap="square" stroke-linejoin="bevel" width="28.799999064027" height="28.8"/>
  <rect id="shape039" transform="matrix(0.999999952904974 0 0 0.999999952904974 0 115.199994574653)" fill="#00d7b9" fill-rule="evenodd" stroke="#000000" stroke-opacity="0" stroke-width="0" stroke-linecap="square" stroke-linejoin="bevel" width="28.799999064027" height="28.8"/>
  <rect id="shape040" transform="matrix(0.999999952904974 0 0 0.999999952904974 115.199994574653 0)" fill="#00d7b9" fill-rule="evenodd" stroke="#000000" stroke-opacity="0" stroke-width="0" stroke-linecap="square" stroke-linejoin="bevel" width="28.799999064027" height="28.8"/>
  <rect id="shape041" transform="matrix(0.99999990580995 0 0 0.99999990580995 28.7999993218322 6.78167964451859e-07)" fill="#00d7b9" fill-rule="evenodd" stroke="#000000" stroke-opacity="0" stroke-width="0" stroke-linecap="square" stroke-linejoin="bevel" width="28.799999064027" height="28.8"/>
  <rect id="shape042" transform="matrix(0.99999990580995 0 0 0.99999990580995 57.5999979654955 28.7999993218312)" fill="#00d7b9" fill-rule="evenodd" stroke="#000000" stroke-opacity="0" stroke-width="0" stroke-linecap="square" stroke-linejoin="bevel" width="28.799999064027" height="28.8"/>
  <rect id="shape043" transform="matrix(0.999999875534579 0 0 0.999999875534579 86.3999970451238 28.7999997577972)" fill="#00d7b9" fill-rule="evenodd" stroke="#000000" stroke-opacity="0" stroke-width="0" stroke-linecap="square" stroke-linejoin="bevel" width="28.799999064027" height="28.8"/>
  <rect id="shape044" transform="matrix(0.999999888149316 0 0 0.999999888149316 57.5999986921045 57.5999982198075)" fill="#00d7b9" fill-rule="evenodd" stroke="#000000" stroke-opacity="0" stroke-width="0" stroke-linecap="square" stroke-linejoin="bevel" width="28.799999064027" height="28.8"/>
  <rect id="shape0112" transform="matrix(0.999999857873946 0 0 0.999999857873946 86.3999972631067 57.5999986557735)" fill="#00d7b9" fill-rule="evenodd" stroke="#000000" stroke-opacity="0" stroke-width="0" stroke-linecap="square" stroke-linejoin="bevel" width="28.799999064027" height="28.8"/>
  <rect id="shape045" transform="matrix(0.999999888149316 0 0 0.999999888149316 57.5999986921045 86.3999968634707)" fill="#00d7b9" fill-rule="evenodd" stroke="#000000" stroke-opacity="0" stroke-width="0" stroke-linecap="square" stroke-linejoin="bevel" width="28.799999064027" height="28.8"/>
  <rect id="shape0113" transform="matrix(0.999999857873946 0 0 0.999999857873946 86.3999972631067 86.3999972994368)" fill="#00d7b9" fill-rule="evenodd" stroke="#000000" stroke-opacity="0" stroke-width="0" stroke-linecap="square" stroke-linejoin="bevel" width="28.799999064027" height="28.8"/>
 </g>
</svg>
